<?xml version="1.0" standalone="no"?>
<!DOCTYPE svg PUBLIC "-//W3C//DTD SVG 20010904//EN"
 "http://www.w3.org/TR/2001/REC-SVG-20010904/DTD/svg10.dtd">
<svg version="1.0" xmlns="http://www.w3.org/2000/svg"
 width="700.000000pt" height="700.000000pt" viewBox="0 0 700.000000 700.000000"
 preserveAspectRatio="xMidYMid meet">
<metadata>
Created by potrace 1.11, written by Peter Selinger 2001-2013
</metadata>
<g transform="translate(0.000000,700.000000) scale(0.100000,-0.100000)"
fill="#000000" stroke="none">
<path d="M3460 6863 c-35 -4 -317 -49 -355 -57 -116 -24 -438 -127 -459 -147
-8 -7 3 -39 54 -154 17 -38 333 -767 598 -1380 69 -159 186 -433 261 -607 75
-175 141 -319 146 -320 6 -1 155 191 333 428 178 236 331 438 340 449 9 11 55
72 102 135 47 63 90 122 97 130 26 33 128 167 303 400 102 135 187 247 190
250 31 30 249 333 245 340 -13 21 -139 105 -275 183 -220 126 -485 230 -740
290 -99 24 -140 31 -235 43 -22 3 -51 8 -65 11 -30 6 -490 11 -540 6z"/>
<path d="M2549 5936 c-195 -99 -339 -196 -491 -329 -92 -81 -198 -188 -239
-242 -13 -16 -26 -32 -29 -35 -15 -13 -103 -134 -153 -210 -158 -243 -291
-583 -331 -845 -4 -22 -8 -47 -11 -55 -12 -45 -19 -157 -19 -340 -1 -233 5
-299 45 -495 33 -164 135 -448 209 -580 12 -22 32 -58 43 -80 43 -79 157 -242
235 -335 71 -85 226 -241 292 -295 207 -168 461 -314 685 -393 97 -34 260 -80
309 -88 22 -3 43 -7 47 -9 7 -5 35 -10 144 -25 121 -18 423 -20 550 -4 205 25
458 89 610 154 l44 19 -30 68 c-17 37 -36 82 -43 98 -34 76 -615 1436 -701
1640 -84 200 -332 775 -370 860 -8 17 -34 77 -58 135 -24 58 -52 123 -62 145
-9 22 -137 321 -284 664 -147 344 -272 626 -277 628 -5 1 -57 -22 -115 -51z"/>
<path d="M4787 5198 c-626 -823 -623 -820 -833 -1089 -44 -57 -95 -125 -113
-150 l-32 -45 69 -160 c38 -87 88 -202 111 -254 23 -52 45 -104 50 -115 5 -11
21 -46 35 -78 14 -32 26 -60 26 -63 0 -3 11 -29 24 -57 13 -29 137 -317 276
-642 329 -768 295 -696 325 -685 71 27 243 137 361 230 384 303 613 590 779
975 26 61 80 217 90 262 2 10 11 43 19 73 8 30 17 69 20 85 3 17 11 62 18 100
23 130 16 575 -12 699 -5 22 -11 59 -14 81 -16 125 -101 368 -192 552 -136
277 -334 526 -571 722 l-61 51 -375 -492z"/>
<path d="M1217 3384 c-1 -1 -30 -5 -64 -8 -147 -15 -310 -92 -399 -188 -78
-83 -144 -216 -158 -316 -3 -24 -8 -47 -11 -52 -12 -19 -5 -272 11 -410 3 -30
7 -75 9 -100 2 -25 6 -67 9 -95 5 -49 12 -127 21 -235 4 -51 7 -79 21 -205 36
-322 147 -590 310 -747 214 -207 578 -340 1049 -385 156 -14 637 -7 735 12 8
2 49 6 90 9 41 4 86 9 100 11 25 4 79 10 180 20 30 3 78 8 105 11 94 11 314 5
375 -11 85 -22 183 -67 223 -103 9 -8 19 -13 21 -11 1 2 20 45 40 94 36 85 46
110 80 188 24 54 27 74 14 84 -24 19 -123 51 -223 71 -125 26 -150 29 -375 47
-64 5 -535 6 -630 1 -212 -12 -330 -20 -480 -33 -47 -5 -150 -8 -230 -8 -180
1 -275 23 -436 101 -239 116 -444 322 -633 636 -58 98 -217 421 -250 512 -62
167 -22 320 111 428 50 41 160 102 232 128 68 25 233 68 295 76 l50 6 -30 82
c-36 97 -82 242 -99 311 -7 28 -14 57 -16 65 -3 12 -37 22 -47 14z"/>
</g>
</svg>
